<svg width="135" height="150" viewBox="0 0 135 150" fill="none" xmlns="http://www.w3.org/2000/svg">
<path d="M60.1674 74L141 108.628V150L15 95L60.1674 74Z" fill="#FFC700"/>
<g filter="url(#filter0_dddddd_51_11)">
<path d="M140.74 0V41.1773L60.0743 74.4309C60.0743 74.4309 30.4998 89 15.0001 95.2144C8.5 78 9.49983 59.786 15.0001 54.5567C24 46.0001 140.74 0 140.74 0Z" fill="#0265FE"/>
</g>
<path d="M59.8976 65.3755C58.7953 65.853 57.73 66.1019 56.7016 66.1222C55.6733 66.1426 54.7424 65.9167 53.9089 65.4446C53.0897 64.9664 52.4518 64.2395 51.9953 63.2641L55.9037 61.5713C56.2027 62.1048 56.582 62.4506 57.0415 62.6086C57.4948 62.7523 57.9863 62.7095 58.516 62.48C59.06 62.2444 59.4368 61.9367 59.6463 61.5569C59.8497 61.1628 59.8552 60.7438 59.663 60.3C59.5018 59.9278 59.2396 59.6758 58.8765 59.5441C58.5277 59.4061 58.1331 59.339 57.6927 59.3427C57.2666 59.3403 56.6737 59.3846 55.914 59.4756C54.8103 59.5966 53.8856 59.6401 53.1397 59.6061C52.3939 59.5721 51.672 59.3577 50.974 58.9629C50.2759 58.5682 49.7223 57.8984 49.3131 56.9535C48.7054 55.5505 48.7392 54.2352 49.4147 53.0076C50.0839 51.7656 51.2345 50.7912 52.8665 50.0843C54.5272 49.365 56.0394 49.1861 57.4031 49.5476C58.7606 49.8947 59.7821 50.7614 60.4675 52.1477L56.4948 53.8684C56.2553 53.3941 55.912 53.0922 55.4649 52.9628C55.0117 52.8191 54.5273 52.8589 54.0119 53.0821C53.5681 53.2743 53.2629 53.551 53.0963 53.9122C52.9236 54.2591 52.9333 54.6544 53.1255 55.0982C53.3363 55.585 53.7297 55.8652 54.3056 55.9387C54.8816 56.0123 55.7245 55.9958 56.8344 55.8891C57.9505 55.7967 58.8743 55.7706 59.6058 55.8108C60.3516 55.8448 61.0705 56.052 61.7623 56.4325C62.4541 56.8129 62.9954 57.4541 63.386 58.356C63.758 59.215 63.8741 60.0913 63.7341 60.985C63.6085 61.8725 63.2204 62.7037 62.5699 63.4785C61.9194 64.2533 61.0286 64.8857 59.8976 65.3755Z" fill="white"/>
<path d="M71.9049 42.0933L73.1792 45.0353L69.1849 46.7653L74.4401 58.8983L70.768 60.4887L65.5128 48.3558L61.5186 50.0858L60.2444 47.1438L71.9049 42.0933Z" fill="white"/>
<path d="M87.4718 53.4324C86.0545 54.0462 84.6091 54.2812 83.1356 54.1374C81.6764 53.9873 80.3419 53.4772 79.1319 52.6071C77.9301 51.7165 77.0098 50.5339 76.3712 49.0593C75.7325 47.5848 75.5025 46.1117 75.6812 44.6401C75.8743 43.1624 76.4151 41.84 77.3038 40.673C78.2068 39.4998 79.367 38.6062 80.7843 37.9924C82.2016 37.3785 83.6398 37.1466 85.099 37.2967C86.5725 37.4406 87.8999 37.9537 89.0812 38.8362C90.2768 39.7125 91.194 40.888 91.8326 42.3625C92.4713 43.8371 92.7044 45.3173 92.5319 46.8032C92.3532 48.2748 91.8195 49.594 90.9308 50.7611C90.0421 51.9281 88.8891 52.8185 87.4718 53.4324ZM86.0208 50.0824C87.2234 49.5615 88.0089 48.7452 88.3775 47.6335C88.7604 46.5155 88.6666 45.298 88.0961 43.9809C87.5195 42.6495 86.6955 41.7482 85.6244 41.2771C84.5613 40.7854 83.4285 40.8 82.226 41.3209C81.0091 41.8479 80.2061 42.6633 79.817 43.7669C79.4422 44.8643 79.5463 46.0859 80.1292 47.4316C80.7058 48.763 81.5257 49.6746 82.5887 50.1662C83.6599 50.6374 84.8039 50.6094 86.0208 50.0824Z" fill="white"/>
<path d="M104.22 33.8603C104.599 34.7335 104.745 35.6221 104.661 36.5258C104.57 37.4152 104.205 38.2617 103.567 39.0651C102.929 39.8686 101.995 40.5369 100.763 41.0702L98.4871 42.0561L100.831 47.4676L97.1589 49.0581L90.6295 33.9832L96.5778 31.4068C97.7804 30.8859 98.8868 30.6532 99.8969 30.7088C100.907 30.7643 101.778 31.0672 102.509 31.6175C103.241 32.1678 103.811 32.9154 104.22 33.8603ZM99.2192 38.2706C99.9207 37.9668 100.372 37.5758 100.573 37.0977C100.774 36.6196 100.744 36.0799 100.484 35.4786C100.223 34.8774 99.85 34.4865 99.3638 34.306C98.8776 34.1256 98.2837 34.1873 97.5822 34.4911L95.5851 35.3561L97.2221 39.1356L99.2192 38.2706Z" fill="white"/>
<path d="M90.1361 99.0133L79.6292 112.349L75.1909 110.407L77.1221 99.4514L70.3024 108.269L65.8641 106.328L68.6309 89.6073L72.5545 91.3234L69.928 103.227L77.4002 93.4428L81.4311 95.2059L79.2119 107.288L86.191 97.2877L90.1361 99.0133Z" fill="white"/>
<path d="M95.9241 116.308L90.3066 113.851L88.2432 116.116L84.4053 114.438L96.4345 101.768L100.68 103.625L99.5425 121.058L95.6617 119.361L95.9241 116.308ZM96.2186 113.066L96.7633 106.739L92.5093 111.443L96.2186 113.066Z" fill="white"/>
<path d="M108.876 125.141L108.231 118.09L107.352 117.705L104.866 123.387L101.2 121.783L107.783 106.732L113.937 109.423C115.123 109.942 116.04 110.59 116.688 111.367C117.35 112.151 117.729 112.998 117.825 113.908C117.927 114.804 117.784 115.695 117.396 116.581C116.958 117.582 116.282 118.35 115.366 118.886C114.465 119.429 113.392 119.623 112.148 119.471L113.014 126.95L108.876 125.141ZM108.486 115.111L110.759 116.105C111.431 116.399 112.003 116.453 112.476 116.268C112.962 116.089 113.337 115.7 113.6 115.1C113.85 114.528 113.875 114.002 113.676 113.524C113.491 113.051 113.063 112.668 112.391 112.374L110.118 111.38L108.486 115.111Z" fill="white"/>
<defs>
<filter id="filter0_dddddd_51_11" x="0.620023" y="0" width="149.992" height="120.674" filterUnits="userSpaceOnUse" color-interpolation-filters="sRGB">
<feFlood flood-opacity="0" result="BackgroundImageFix"/>
<feColorMatrix in="SourceAlpha" type="matrix" values="0 0 0 0 0 0 0 0 0 0 0 0 0 0 0 0 0 0 127 0" result="hardAlpha"/>
<feOffset dy="0.43135"/>
<feGaussianBlur stdDeviation="0.136594"/>
<feColorMatrix type="matrix" values="0 0 0 0 0 0 0 0 0 0 0 0 0 0 0 0 0 0 0.030926 0"/>
<feBlend mode="normal" in2="BackgroundImageFix" result="effect1_dropShadow_51_11"/>
<feColorMatrix in="SourceAlpha" type="matrix" values="0 0 0 0 0 0 0 0 0 0 0 0 0 0 0 0 0 0 127 0" result="hardAlpha"/>
<feOffset dy="1.03659"/>
<feGaussianBlur stdDeviation="0.328255"/>
<feColorMatrix type="matrix" values="0 0 0 0 0 0 0 0 0 0 0 0 0 0 0 0 0 0 0.0444282 0"/>
<feBlend mode="normal" in2="effect1_dropShadow_51_11" result="effect2_dropShadow_51_11"/>
<feColorMatrix in="SourceAlpha" type="matrix" values="0 0 0 0 0 0 0 0 0 0 0 0 0 0 0 0 0 0 127 0" result="hardAlpha"/>
<feOffset dy="1.95181"/>
<feGaussianBlur stdDeviation="0.618074"/>
<feColorMatrix type="matrix" values="0 0 0 0 0 0 0 0 0 0 0 0 0 0 0 0 0 0 0.055 0"/>
<feBlend mode="normal" in2="effect2_dropShadow_51_11" result="effect3_dropShadow_51_11"/>
<feColorMatrix in="SourceAlpha" type="matrix" values="0 0 0 0 0 0 0 0 0 0 0 0 0 0 0 0 0 0 127 0" result="hardAlpha"/>
<feOffset dy="3.4817"/>
<feGaussianBlur stdDeviation="1.10254"/>
<feColorMatrix type="matrix" values="0 0 0 0 0 0 0 0 0 0 0 0 0 0 0 0 0 0 0.0655718 0"/>
<feBlend mode="normal" in2="effect3_dropShadow_51_11" result="effect4_dropShadow_51_11"/>
<feColorMatrix in="SourceAlpha" type="matrix" values="0 0 0 0 0 0 0 0 0 0 0 0 0 0 0 0 0 0 127 0" result="hardAlpha"/>
<feOffset dy="6.51214"/>
<feGaussianBlur stdDeviation="2.06218"/>
<feColorMatrix type="matrix" values="0 0 0 0 0 0 0 0 0 0 0 0 0 0 0 0 0 0 0.079074 0"/>
<feBlend mode="normal" in2="effect4_dropShadow_51_11" result="effect5_dropShadow_51_11"/>
<feColorMatrix in="SourceAlpha" type="matrix" values="0 0 0 0 0 0 0 0 0 0 0 0 0 0 0 0 0 0 127 0" result="hardAlpha"/>
<feOffset dy="15.5876"/>
<feGaussianBlur stdDeviation="4.93608"/>
<feColorMatrix type="matrix" values="0 0 0 0 0 0 0 0 0 0 0 0 0 0 0 0 0 0 0.11 0"/>
<feBlend mode="normal" in2="effect5_dropShadow_51_11" result="effect6_dropShadow_51_11"/>
<feBlend mode="normal" in="SourceGraphic" in2="effect6_dropShadow_51_11" result="shape"/>
</filter>
</defs>
</svg>
